<svg width="403" height="150" viewBox="0 0 403 150" fill="none" xmlns="http://www.w3.org/2000/svg">
<path d="M13.496 0.735999V28.672C15.608 20.608 19.112 13.984 24.008 8.8C29 3.52 35.576 0.879997 43.736 0.879997C49.496 0.879997 53.864 2.848 56.84 6.784C59.816 10.72 61.304 15.616 61.304 21.472V90.592C61.304 93.28 61.832 95.44 62.888 97.072C64.04 98.704 65.624 99.52 67.64 99.52C69.272 99.52 70.904 99.04 72.536 98.08C74.168 97.024 75.416 95.776 76.28 94.336L78.296 96.208C77.048 99.088 75.032 101.584 72.248 103.696C69.464 105.712 66.248 106.72 62.6 106.72C58.184 106.72 54.632 105.232 51.944 102.256C49.256 99.184 47.912 94.768 47.912 89.008V27.232C47.912 21.856 47.288 17.392 46.04 13.84C44.888 10.288 42.152 8.51199 37.832 8.51199C32.36 8.51199 27.8 11.248 24.152 16.72C20.504 22.096 17.816 28.432 16.088 35.728C14.36 43.024 13.496 49.312 13.496 54.592V102.544L0.248001 107.872V5.77599L13.496 0.735999ZM144.727 98.224C144.727 107.248 142.903 115.696 139.255 123.568C135.703 131.44 130.951 137.728 124.999 142.432C119.047 147.136 112.711 149.488 105.991 149.488C103.399 149.488 100.951 149.104 98.6473 148.336C96.3433 147.568 93.9433 146.272 91.4473 144.448L101.527 131.632C103.543 133.648 105.895 135.28 108.583 136.528C111.367 137.776 113.959 138.4 116.359 138.4C119.335 138.4 122.023 136.624 124.423 133.072C126.823 129.52 128.695 124.624 130.039 118.384C131.479 112.144 132.199 105.088 132.199 97.216C132.199 79.36 132.247 67.888 132.343 62.8V54.16H131.479C123.607 89.872 113.383 107.728 100.807 107.728C98.0233 107.728 95.9593 107.152 94.6153 106C93.2713 104.944 92.3593 102.976 91.8793 100.096C91.3993 97.216 91.1593 92.848 91.1593 86.992V46.384C91.1593 44.848 90.7753 43.552 90.0073 42.496C89.2393 41.44 88.2793 40.912 87.1273 40.912C84.7273 40.912 82.1833 42.88 79.4953 46.816L77.1913 44.512C79.3033 40 81.3673 36.928 83.3833 35.296C85.4953 33.664 88.5193 32.848 92.4553 32.848C96.2953 32.848 99.1753 34.096 101.095 36.592C103.015 38.992 103.975 42.544 103.975 47.248V86.56C103.975 90.112 104.983 91.888 106.999 91.888C109.399 91.888 112.471 88.624 116.215 82.096C119.959 75.568 123.271 68.032 126.151 59.488C129.031 50.848 130.471 43.84 130.471 38.464L144.727 31.984V98.224ZM201.666 34C206.37 34 210.786 35.008 214.914 37.024C219.138 39.04 222.21 42.112 224.13 46.24L213.762 51.856C212.226 49.648 210.114 47.68 207.426 45.952C204.738 44.128 201.858 43.216 198.786 43.216C193.89 43.216 189.618 44.512 185.97 47.104C182.322 49.6 179.538 53.008 177.618 57.328C175.698 61.648 174.738 66.448 174.738 71.728C174.738 79.312 176.034 85.504 178.626 90.304C181.218 95.008 185.298 97.36 190.866 97.36C198.738 97.36 204.162 94.192 207.138 87.856C210.114 81.52 211.602 74.608 211.602 67.12V60.64L224.274 55.312V93.184C224.274 94.432 224.61 95.632 225.282 96.784C225.954 97.936 226.962 98.512 228.306 98.512C231.09 98.512 233.634 96.592 235.938 92.752L238.098 95.056C236.946 98.32 234.93 101.104 232.05 103.408C229.17 105.616 226.29 106.72 223.41 106.72C219.282 106.72 216.21 105.184 214.194 102.112C212.274 99.04 211.314 94.96 211.314 89.872H211.026C208.626 94.96 205.362 99.232 201.234 102.688C197.202 106.048 192.93 107.728 188.418 107.728C180.258 107.728 174.066 104.944 169.842 99.376C165.714 93.712 163.65 86.176 163.65 76.768C163.65 69.28 165.33 62.272 168.69 55.744C172.05 49.12 176.61 43.84 182.37 39.904C188.226 35.968 194.658 34 201.666 34ZM222.69 4.62399H192.306L187.122 14.56H217.65L222.69 4.62399ZM309.118 98.224C309.118 107.248 307.294 115.696 303.646 123.568C300.094 131.44 295.342 137.728 289.39 142.432C283.438 147.136 277.102 149.488 270.382 149.488C267.79 149.488 265.342 149.104 263.038 148.336C260.734 147.568 258.334 146.272 255.838 144.448L265.918 131.632C267.934 133.648 270.286 135.28 272.974 136.528C275.758 137.776 278.35 138.4 280.75 138.4C283.726 138.4 286.414 136.624 288.814 133.072C291.214 129.52 293.086 124.624 294.43 118.384C295.87 112.144 296.59 105.088 296.59 97.216C296.59 79.36 296.638 67.888 296.734 62.8V54.16H295.87C287.998 89.872 277.774 107.728 265.198 107.728C262.414 107.728 260.35 107.152 259.006 106C257.662 104.944 256.75 102.976 256.27 100.096C255.79 97.216 255.55 92.848 255.55 86.992V46.384C255.55 44.848 255.166 43.552 254.398 42.496C253.63 41.44 252.67 40.912 251.518 40.912C249.118 40.912 246.574 42.88 243.886 46.816L241.582 44.512C243.694 40 245.758 36.928 247.774 35.296C249.886 33.664 252.91 32.848 256.846 32.848C260.686 32.848 263.566 34.096 265.486 36.592C267.406 38.992 268.366 42.544 268.366 47.248V86.56C268.366 90.112 269.374 91.888 271.39 91.888C273.79 91.888 276.862 88.624 280.606 82.096C284.35 75.568 287.662 68.032 290.542 59.488C293.422 50.848 294.862 43.84 294.862 38.464L309.118 31.984V98.224ZM366.056 34C370.76 34 375.176 35.008 379.304 37.024C383.528 39.04 386.6 42.112 388.52 46.24L378.152 51.856C376.616 49.648 374.504 47.68 371.816 45.952C369.128 44.128 366.248 43.216 363.176 43.216C358.28 43.216 354.008 44.512 350.36 47.104C346.712 49.6 343.928 53.008 342.008 57.328C340.088 61.648 339.128 66.448 339.128 71.728C339.128 79.312 340.424 85.504 343.016 90.304C345.608 95.008 349.688 97.36 355.256 97.36C363.128 97.36 368.552 94.192 371.528 87.856C374.504 81.52 375.992 74.608 375.992 67.12V60.64L388.664 55.312V93.184C388.664 94.432 389 95.632 389.672 96.784C390.344 97.936 391.352 98.512 392.696 98.512C395.48 98.512 398.024 96.592 400.328 92.752L402.488 95.056C401.336 98.32 399.32 101.104 396.44 103.408C393.56 105.616 390.68 106.72 387.8 106.72C383.672 106.72 380.6 105.184 378.584 102.112C376.664 99.04 375.704 94.96 375.704 89.872H375.416C373.016 94.96 369.752 99.232 365.624 102.688C361.592 106.048 357.32 107.728 352.808 107.728C344.648 107.728 338.456 104.944 334.232 99.376C330.104 93.712 328.04 86.176 328.04 76.768C328.04 69.28 329.72 62.272 333.08 55.744C336.44 49.12 341 43.84 346.76 39.904C352.616 35.968 359.048 34 366.056 34Z" fill="#B44100"/>
</svg>
