<svg width="617" height="280" viewBox="0 0 617 280" fill="none" xmlns="http://www.w3.org/2000/svg">
<path d="M90.6821 206.797C119.502 217.593 145.497 210.006 145.497 210.006C124.833 209.636 116.561 205.832 113.422 202.168C144.199 202.455 166.034 186.433 166.034 186.433C146.487 193.153 137.41 192.409 133.204 190.036C162.227 179.781 177.263 157.262 177.263 157.262C161.193 170.259 152.41 172.661 147.648 171.873C171.413 152.307 177.836 126.004 177.836 126.004C167.179 143.712 159.753 148.98 155.006 149.861C170.646 123.354 167.687 96.436 167.687 96.436C163.732 116.724 158.548 124.211 154.393 126.665C160.023 96.4021 148.038 72.1217 148.038 72.1217C151.257 92.5381 148.951 101.346 145.886 105.078C140.824 74.7149 121.257 55.997 121.257 55.997C131.265 74.0828 132.11 83.1467 130.507 87.6983C115.365 60.9005 90.5725 50 90.5725 50C106.167 63.5708 110.062 71.801 110.111 76.6259C86.7139 56.6291 59.6914 54.8642 59.6914 54.8642C78.9858 62.2864 85.4593 68.6867 87.1551 73.2031C58.3326 62.4109 32.3374 69.9968 32.3374 69.9968C53.0014 70.3663 61.2763 74.1708 64.4149 77.8345C33.6394 77.5489 11.8059 93.5694 11.8059 93.5694C31.3588 86.8537 40.4295 87.5941 44.6332 89.9666C15.6117 100.223 0.575204 122.744 0.575204 122.744C16.6485 109.743 25.4308 107.338 30.1908 108.13C6.42606 127.692 0 153.998 0 153.998C10.6582 136.286 18.0858 131.023 22.8309 130.138C7.19074 156.653 10.1507 183.567 10.1507 183.567C14.1054 163.278 19.289 155.793 23.444 153.337C17.8138 183.596 29.801 207.88 29.801 207.88C26.5799 187.461 28.8861 178.655 31.953 174.925C37.0148 205.288 56.5812 224.006 56.5812 224.006C46.57 205.921 45.7268 196.855 47.3319 192.303C62.4727 219.102 87.262 230 87.262 230C71.6692 216.432 67.7768 208.2 67.7253 203.371C91.1206 223.375 118.139 225.137 118.139 225.137C98.8487 217.716 92.3753 211.316 90.6821 206.797ZM66.0376 180.31C60.5576 176.984 56.3038 172.948 53.6281 170.05C49.6219 165.055 47.0031 159.81 45.4791 156.171C43.4233 150.103 42.756 144.278 42.5706 140.341C42.7114 133.934 44.0756 128.231 45.2477 124.463C47.5756 118.493 50.8102 113.603 53.2017 110.466C57.4258 105.647 62.1384 102.158 65.4543 100.028C71.0751 96.9489 76.6958 95.2815 80.5423 94.4153C86.8736 93.4436 92.7231 93.7995 96.6345 94.2989C102.92 95.5508 108.294 97.8855 111.802 99.6964C117.276 103.016 121.524 107.048 124.202 109.942C128.215 114.943 130.834 120.194 132.358 123.837C134.414 129.901 135.08 135.727 135.267 139.663C135.125 146.07 133.759 151.769 132.588 155.536C130.266 161.507 127.034 166.394 124.644 169.533C120.414 174.354 115.703 177.843 112.383 179.977C106.765 183.054 101.144 184.724 97.2963 185.59C90.9623 186.562 85.1141 186.205 81.2 185.705C74.9174 184.453 69.543 182.117 66.0376 180.31Z" fill="#FF5C00"/>
<path d="M226.496 80.736V108.672C228.608 100.608 232.112 93.984 237.008 88.8C242 83.52 248.576 80.88 256.736 80.88C262.496 80.88 266.864 82.848 269.84 86.784C272.816 90.72 274.304 95.616 274.304 101.472V170.592C274.304 173.28 274.832 175.44 275.888 177.072C277.04 178.704 278.624 179.52 280.64 179.52C282.272 179.52 283.904 179.04 285.536 178.08C287.168 177.024 288.416 175.776 289.28 174.336L291.296 176.208C290.048 179.088 288.032 181.584 285.248 183.696C282.464 185.712 279.248 186.72 275.6 186.72C271.184 186.72 267.632 185.232 264.944 182.256C262.256 179.184 260.912 174.768 260.912 169.008V107.232C260.912 101.856 260.288 97.392 259.04 93.84C257.888 90.288 255.152 88.512 250.832 88.512C245.36 88.512 240.8 91.248 237.152 96.72C233.504 102.096 230.816 108.432 229.088 115.728C227.36 123.024 226.496 129.312 226.496 134.592V182.544L213.248 187.872V85.776L226.496 80.736ZM357.727 178.224C357.727 187.248 355.903 195.696 352.255 203.568C348.703 211.44 343.951 217.728 337.999 222.432C332.047 227.136 325.711 229.488 318.991 229.488C316.399 229.488 313.951 229.104 311.647 228.336C309.343 227.568 306.943 226.272 304.447 224.448L314.527 211.632C316.543 213.648 318.895 215.28 321.583 216.528C324.367 217.776 326.959 218.4 329.359 218.4C332.335 218.4 335.023 216.624 337.423 213.072C339.823 209.52 341.695 204.624 343.039 198.384C344.479 192.144 345.199 185.088 345.199 177.216C345.199 159.36 345.247 147.888 345.343 142.8V134.16H344.479C336.607 169.872 326.383 187.728 313.807 187.728C311.023 187.728 308.959 187.152 307.615 186C306.271 184.944 305.359 182.976 304.879 180.096C304.399 177.216 304.159 172.848 304.159 166.992V126.384C304.159 124.848 303.775 123.552 303.007 122.496C302.239 121.44 301.279 120.912 300.127 120.912C297.727 120.912 295.183 122.88 292.495 126.816L290.191 124.512C292.303 120 294.367 116.928 296.383 115.296C298.495 113.664 301.519 112.848 305.455 112.848C309.295 112.848 312.175 114.096 314.095 116.592C316.015 118.992 316.975 122.544 316.975 127.248V166.56C316.975 170.112 317.983 171.888 319.999 171.888C322.399 171.888 325.471 168.624 329.215 162.096C332.959 155.568 336.271 148.032 339.151 139.488C342.031 130.848 343.471 123.84 343.471 118.464L357.727 111.984V178.224ZM414.666 114C419.37 114 423.786 115.008 427.914 117.024C432.138 119.04 435.21 122.112 437.13 126.24L426.762 131.856C425.226 129.648 423.114 127.68 420.426 125.952C417.738 124.128 414.858 123.216 411.786 123.216C406.89 123.216 402.618 124.512 398.97 127.104C395.322 129.6 392.538 133.008 390.618 137.328C388.698 141.648 387.738 146.448 387.738 151.728C387.738 159.312 389.034 165.504 391.626 170.304C394.218 175.008 398.298 177.36 403.866 177.36C411.738 177.36 417.162 174.192 420.138 167.856C423.114 161.52 424.602 154.608 424.602 147.12V140.64L437.274 135.312V173.184C437.274 174.432 437.61 175.632 438.282 176.784C438.954 177.936 439.962 178.512 441.306 178.512C444.09 178.512 446.634 176.592 448.938 172.752L451.098 175.056C449.946 178.32 447.93 181.104 445.05 183.408C442.17 185.616 439.29 186.72 436.41 186.72C432.282 186.72 429.21 185.184 427.194 182.112C425.274 179.04 424.314 174.96 424.314 169.872H424.026C421.626 174.96 418.362 179.232 414.234 182.688C410.202 186.048 405.93 187.728 401.418 187.728C393.258 187.728 387.066 184.944 382.842 179.376C378.714 173.712 376.65 166.176 376.65 156.768C376.65 149.28 378.33 142.272 381.69 135.744C385.05 129.12 389.61 123.84 395.37 119.904C401.226 115.968 407.658 114 414.666 114ZM435.69 84.624H405.306L400.122 94.56H430.65L435.69 84.624ZM522.118 178.224C522.118 187.248 520.294 195.696 516.646 203.568C513.094 211.44 508.342 217.728 502.39 222.432C496.438 227.136 490.102 229.488 483.382 229.488C480.79 229.488 478.342 229.104 476.038 228.336C473.734 227.568 471.334 226.272 468.838 224.448L478.918 211.632C480.934 213.648 483.286 215.28 485.974 216.528C488.758 217.776 491.35 218.4 493.75 218.4C496.726 218.4 499.414 216.624 501.814 213.072C504.214 209.52 506.086 204.624 507.43 198.384C508.87 192.144 509.59 185.088 509.59 177.216C509.59 159.36 509.638 147.888 509.734 142.8V134.16H508.87C500.998 169.872 490.774 187.728 478.198 187.728C475.414 187.728 473.35 187.152 472.006 186C470.662 184.944 469.75 182.976 469.27 180.096C468.79 177.216 468.55 172.848 468.55 166.992V126.384C468.55 124.848 468.166 123.552 467.398 122.496C466.63 121.44 465.67 120.912 464.518 120.912C462.118 120.912 459.574 122.88 456.886 126.816L454.582 124.512C456.694 120 458.758 116.928 460.774 115.296C462.886 113.664 465.91 112.848 469.846 112.848C473.686 112.848 476.566 114.096 478.486 116.592C480.406 118.992 481.366 122.544 481.366 127.248V166.56C481.366 170.112 482.374 171.888 484.39 171.888C486.79 171.888 489.862 168.624 493.606 162.096C497.35 155.568 500.662 148.032 503.542 139.488C506.422 130.848 507.862 123.84 507.862 118.464L522.118 111.984V178.224ZM579.056 114C583.76 114 588.176 115.008 592.304 117.024C596.528 119.04 599.6 122.112 601.52 126.24L591.152 131.856C589.616 129.648 587.504 127.68 584.816 125.952C582.128 124.128 579.248 123.216 576.176 123.216C571.28 123.216 567.008 124.512 563.36 127.104C559.712 129.6 556.928 133.008 555.008 137.328C553.088 141.648 552.128 146.448 552.128 151.728C552.128 159.312 553.424 165.504 556.016 170.304C558.608 175.008 562.688 177.36 568.256 177.36C576.128 177.36 581.552 174.192 584.528 167.856C587.504 161.52 588.992 154.608 588.992 147.12V140.64L601.664 135.312V173.184C601.664 174.432 602 175.632 602.672 176.784C603.344 177.936 604.352 178.512 605.696 178.512C608.48 178.512 611.024 176.592 613.328 172.752L615.488 175.056C614.336 178.32 612.32 181.104 609.44 183.408C606.56 185.616 603.68 186.72 600.8 186.72C596.672 186.72 593.6 185.184 591.584 182.112C589.664 179.04 588.704 174.96 588.704 169.872H588.416C586.016 174.96 582.752 179.232 578.624 182.688C574.592 186.048 570.32 187.728 565.808 187.728C557.648 187.728 551.456 184.944 547.232 179.376C543.104 173.712 541.04 166.176 541.04 156.768C541.04 149.28 542.72 142.272 546.08 135.744C549.44 129.12 554 123.84 559.76 119.904C565.616 115.968 572.048 114 579.056 114Z" fill="#B44100"/>
</svg>
