<svg width="178" height="180" viewBox="0 0 178 180" fill="none" xmlns="http://www.w3.org/2000/svg">
<path d="M90.6821 156.797C119.502 167.593 145.497 160.006 145.497 160.006C124.833 159.636 116.561 155.832 113.422 152.168C144.199 152.455 166.034 136.433 166.034 136.433C146.487 143.153 137.41 142.409 133.204 140.036C162.227 129.781 177.263 107.262 177.263 107.262C161.193 120.259 152.41 122.661 147.648 121.873C171.413 102.307 177.836 76.0042 177.836 76.0042C167.179 93.7124 159.753 98.98 155.006 99.861C170.646 73.3542 167.687 46.436 167.687 46.436C163.732 66.7238 158.548 74.211 154.393 76.6647C160.023 46.4021 148.038 22.1217 148.038 22.1217C151.257 42.5381 148.951 51.3462 145.886 55.0776C140.824 24.7149 121.257 5.99702 121.257 5.99702C131.265 24.0828 132.11 33.1467 130.507 37.6983C115.365 10.9005 90.5725 0 90.5725 0C106.167 13.5708 110.062 21.801 110.111 26.6259C86.7139 6.62907 59.6914 4.86421 59.6914 4.86421C78.9858 12.2864 85.4593 18.6867 87.1551 23.2031C58.3326 12.4109 32.3374 19.9968 32.3374 19.9968C53.0014 20.3663 61.2763 24.1708 64.4149 27.8345C33.6394 27.549 11.8059 43.5694 11.8059 43.5694C31.3588 36.8537 40.4295 37.5941 44.6332 39.9666C15.6117 50.2229 0.575204 72.7438 0.575204 72.7438C16.6485 59.7429 25.4308 57.3378 30.1908 58.1296C6.42606 77.692 0 103.998 0 103.998C10.6582 86.2862 18.0858 81.0227 22.8309 80.1376C7.19074 106.653 10.1507 133.567 10.1507 133.567C14.1054 113.278 19.289 105.793 23.444 103.337C17.8138 133.596 29.801 157.88 29.801 157.88C26.5799 137.461 28.8861 128.655 31.953 124.925C37.0148 155.288 56.5812 174.006 56.5812 174.006C46.57 155.921 45.7268 146.855 47.3319 142.303C62.4727 169.102 87.262 180 87.262 180C71.6692 166.432 67.7768 158.2 67.7253 153.371C91.1206 173.375 118.139 175.137 118.139 175.137C98.8487 167.716 92.3753 161.316 90.6821 156.797ZM66.0376 130.31C60.5576 126.984 56.3038 122.948 53.6281 120.05C49.6219 115.055 47.0031 109.81 45.4791 106.171C43.4233 100.103 42.756 94.2782 42.5706 90.3411C42.7114 83.934 44.0756 78.2306 45.2477 74.4627C47.5756 68.4927 50.8102 63.6028 53.2017 60.4656C57.4258 55.6474 62.1384 52.1583 65.4543 50.028C71.0751 46.9489 76.6958 45.2815 80.5423 44.4153C86.8736 43.4436 92.7231 43.7995 96.6345 44.2989C102.92 45.5508 108.294 47.8855 111.802 49.6964C117.276 53.0163 121.524 57.0482 124.202 59.9418C128.215 64.9427 130.834 70.194 132.358 73.8374C134.414 79.9007 135.08 85.7272 135.267 89.663C135.125 96.0701 133.759 101.769 132.588 105.536C130.266 111.507 127.034 116.394 124.644 119.533C120.414 124.354 115.703 127.843 112.383 129.977C106.765 133.054 101.144 134.724 97.2963 135.59C90.9623 136.562 85.1141 136.205 81.2 135.705C74.9174 134.453 69.543 132.117 66.0376 130.31Z" fill="#FF5C00"/>
</svg>
